<svg width="46" height="45" viewBox="0 0 46 45" fill="none" xmlns="http://www.w3.org/2000/svg">
<mask id="mask0_20_8" style="mask-type:luminance" maskUnits="userSpaceOnUse" x="0" y="0" width="46" height="45">
<path d="M0 -4.76837e-07H46V45H0V-4.76837e-07Z" fill="white"/>
</mask>
<g mask="url(#mask0_20_8)">
<path d="M33.8947 10.6579C33.0684 10.6582 32.2466 10.7771 31.4555 11.0108C31.4616 10.8924 31.4737 10.7775 31.4737 10.6579C31.4725 8.93766 30.8333 7.27628 29.6746 5.9823C28.5159 4.68831 26.9166 3.84965 25.1736 3.62206C23.4306 3.39447 21.6623 3.79342 20.1973 4.74482C18.7323 5.69622 17.6699 7.13541 17.2076 8.79513C16.3548 8.46153 15.4448 8.28992 14.5263 8.28947C13.5725 8.28947 12.628 8.47326 11.7468 8.83033C10.8656 9.1874 10.0649 9.71077 9.39049 10.3706C8.71604 11.0303 8.18104 11.8136 7.81604 12.6757C7.45103 13.5377 7.26316 14.4617 7.26316 15.3947C7.26316 16.3278 7.45103 17.2518 7.81604 18.1138C8.18104 18.9759 8.71604 19.7591 9.39049 20.4189C10.0649 21.0787 10.8656 21.6021 11.7468 21.9591C12.628 22.3162 13.5725 22.5 14.5263 22.5C16.1201 22.499 17.6692 21.985 18.9348 21.0374C20.2004 20.0897 21.112 18.7611 21.5292 17.2563C22.382 17.5903 23.292 17.7623 24.2105 17.7632C24.6645 17.7632 25.1063 17.717 25.5373 17.64C25.4629 18.072 25.424 18.5092 25.4211 18.9474C25.4211 23.5243 29.2161 27.2368 33.8947 27.2368C38.5734 27.2368 42.3684 23.5243 42.3684 18.9474C42.3684 16.7489 41.4757 14.6404 39.8865 13.0858C38.2974 11.5312 36.1421 10.6579 33.8947 10.6579Z" fill="white"/>
<path d="M38.7368 27.2368C38.1878 27.2448 37.6425 27.3261 37.1159 27.4784C37.3774 26.8555 37.5263 26.1758 37.5263 25.4605C37.5263 24.0472 36.9524 22.6918 35.9308 21.6924C34.9092 20.693 33.5237 20.1316 32.0789 20.1316C30.8964 20.1349 29.7476 20.5181 28.8093 21.2222C28.3841 19.5585 27.4028 18.0814 26.0213 17.0256C24.6398 15.9698 22.9373 15.3958 21.1842 15.3947C19.5529 15.3956 17.9622 15.8926 16.6325 16.8171C15.3028 17.7415 14.2998 19.0476 13.7625 20.5543C12.4309 20.1516 11.0262 20.0347 9.64426 20.2118C8.26232 20.3888 6.93573 20.8556 5.75511 21.5802C4.57448 22.3048 3.56765 23.2702 2.8034 24.4104C2.03914 25.5505 1.53546 26.8387 1.32677 28.1867C1.11808 29.5348 1.20929 30.9111 1.59418 32.2215C1.97907 33.5319 2.64857 34.7456 3.55693 35.7797C4.46529 36.8138 5.59112 37.6439 6.85751 38.2133C8.12389 38.7827 9.50099 39.078 10.8947 39.0789H38.7368C40.3421 39.0789 41.8816 38.4551 43.0167 37.3447C44.1518 36.2343 44.7895 34.7283 44.7895 33.1579C44.7895 31.5875 44.1518 30.0815 43.0167 28.9711C41.8816 27.8607 40.3421 27.2368 38.7368 27.2368Z" fill="#F8CCCE"/>
</g>
</svg>
