<svg width="379" height="175" viewBox="0 0 379 175" fill="none" xmlns="http://www.w3.org/2000/svg">
<rect width="379" height="175" rx="87" fill="url(#paint0_linear_14_14)"/>
<circle cx="93.4907" cy="14.6168" r="1" transform="rotate(-163.319 93.4907 14.6168)" fill="white"/>
<circle cx="93.6095" cy="26.6184" r="1" transform="rotate(-101.559 93.6095 26.6184)" fill="white"/>
<circle cx="123.772" cy="19.7273" r="1" transform="rotate(-118.421 123.772 19.7273)" fill="white" fill-opacity="0.22"/>
<circle cx="136.208" cy="30.4688" r="1" transform="rotate(-56.6615 136.208 30.4688)" fill="white"/>
<circle cx="115.385" cy="28.3127" r="1" transform="rotate(-56.6615 115.385 28.3127)" fill="white"/>
<circle cx="148.213" cy="32.3086" r="1" transform="rotate(-56.6615 148.213 32.3086)" fill="white"/>
<circle cx="58.9491" cy="33.0556" r="1" transform="rotate(-118.421 58.9491 33.0556)" fill="white"/>
<circle cx="71.385" cy="43.7971" r="1" transform="rotate(-56.6615 71.385 43.7971)" fill="white" fill-opacity="0.22"/>
<circle cx="71.562" cy="72.641" r="1" transform="rotate(-56.6615 71.562 72.641)" fill="white" fill-opacity="0.22"/>
<circle cx="50.562" cy="41.641" r="1" transform="rotate(-56.6615 50.562 41.641)" fill="white"/>
<circle cx="108.491" cy="58.2885" r="1" transform="rotate(-163.319 108.491 58.2885)" fill="white" fill-opacity="0.22"/>
<circle cx="124.882" cy="57.1197" r="1" transform="rotate(-101.559 124.882 57.1197)" fill="white"/>
<circle cx="145.366" cy="77.4267" r="1" transform="rotate(-101.559 145.366 77.4267)" fill="white"/>
<circle cx="108.61" cy="70.2901" r="1" transform="rotate(-101.559 108.61 70.2901)" fill="white"/>
<circle cx="182.532" cy="31.2457" r="1" transform="rotate(-101.559 182.532 31.2457)" fill="white"/>
<circle cx="205.577" cy="9.1801" r="1" transform="rotate(-101.559 205.577 9.1801)" fill="white" fill-opacity="0.22"/>
<circle cx="128.35" cy="94.6026" r="1" transform="rotate(-101.559 128.35 94.6026)" fill="white"/>
<circle cx="134.685" cy="49.949" r="1" transform="rotate(-101.559 134.685 49.949)" fill="white"/>
<circle cx="178.215" cy="48.1905" r="1" transform="rotate(-101.559 178.215 48.1905)" fill="white"/>
<circle cx="47.385" cy="72.7971" r="1" transform="rotate(-56.6615 47.385 72.7971)" fill="white"/>
<circle cx="194.562" cy="56.3127" r="1" transform="rotate(-56.6615 194.562 56.3127)" fill="white"/>
<circle cx="83.3904" cy="45.6369" r="1" transform="rotate(-56.6615 83.3904 45.6369)" fill="white"/>
<circle cx="274.485" cy="80.8325" r="1" transform="rotate(-56.6615 274.485 80.8325)" fill="white"/>
<circle cx="104.1" cy="64.7758" r="1" fill="white"/>
<circle cx="306.385" cy="81.4688" r="1" transform="rotate(-56.6615 306.385 81.4688)" fill="white"/>
<circle cx="191.385" cy="87.4688" r="1" transform="rotate(-56.6615 191.385 87.4688)" fill="white"/>
<circle cx="227.39" cy="60.3086" r="1" transform="rotate(-56.6615 227.39 60.3086)" fill="white"/>
<circle cx="259.467" cy="89.7888" r="1" transform="rotate(-56.6615 259.467 89.7888)" fill="white"/>
<circle cx="272.1" cy="63.4475" r="1" fill="white"/>
<circle cx="248.1" cy="79.4475" r="1" fill="white"/>
<circle cx="264.849" cy="37.6517" r="1" transform="rotate(-118.421 264.849 37.6517)" fill="white"/>
<circle cx="280.504" cy="9.85005" r="1" transform="rotate(-118.421 280.504 9.85005)" fill="white"/>
<circle cx="305.998" cy="23.3423" r="1" transform="rotate(-118.421 305.998 23.3423)" fill="white" fill-opacity="0.22"/>
<circle cx="245.385" cy="47.7569" r="1" transform="rotate(-56.6615 245.385 47.7569)" fill="white"/>
<circle cx="256.285" cy="17.3932" r="1" transform="rotate(-56.6615 256.285 17.3932)" fill="white"/>
<circle cx="215.385" cy="58.4688" r="1" transform="rotate(-56.6615 215.385 58.4688)" fill="white" fill-opacity="0.22"/>
<circle cx="253.462" cy="106.237" r="1" transform="rotate(-56.6615 253.462 106.237)" fill="white"/>
<circle cx="98.3904" cy="89.3086" r="1" transform="rotate(-56.6615 98.3904 89.3086)" fill="white" fill-opacity="0.22"/>
<circle cx="277.285" cy="48.3932" r="1" transform="rotate(-56.6615 277.285 48.3932)" fill="white"/>
<circle cx="336.385" cy="70.7569" r="1" transform="rotate(-56.6615 336.385 70.7569)" fill="white" fill-opacity="0.22"/>
<circle cx="130.467" cy="118.789" r="1" transform="rotate(-56.6615 130.467 118.789)" fill="white"/>
<circle cx="202.949" cy="47.7273" r="1" transform="rotate(-118.421 202.949 47.7273)" fill="white"/>
<circle cx="224.385" cy="16.7569" r="1" transform="rotate(-56.6615 224.385 16.7569)" fill="white"/>
<circle cx="368.285" cy="71.3932" r="1" transform="rotate(-56.6615 368.285 71.3932)" fill="white" fill-opacity="0.22"/>
<circle cx="143.1" cy="92.4475" r="1" fill="white" fill-opacity="0.22"/>
<circle cx="368.462" cy="100.237" r="1" transform="rotate(-56.6615 368.462 100.237)" fill="white"/>
<circle cx="119.1" cy="108.447" r="1" fill="white"/>
<circle cx="215.562" cy="87.3127" r="1" transform="rotate(-56.6615 215.562 87.3127)" fill="white"/>
<circle cx="256.462" cy="46.2371" r="1" transform="rotate(-56.6615 256.462 46.2371)" fill="white" fill-opacity="0.22"/>
<circle cx="221.385" cy="76.7569" r="1" transform="rotate(-56.6615 221.385 76.7569)" fill="white" fill-opacity="0.22"/>
<circle cx="177.385" cy="110.469" r="1" transform="rotate(-56.6615 177.385 110.469)" fill="white"/>
<circle cx="253.285" cy="77.3932" r="1" transform="rotate(-56.6615 253.285 77.3932)" fill="white"/>
<circle cx="62.385" cy="116.469" r="1" transform="rotate(-56.6615 62.385 116.469)" fill="white"/>
<circle cx="291.385" cy="105.757" r="1" transform="rotate(-56.6615 291.385 105.757)" fill="white"/>
<circle cx="86.562" cy="116.313" r="1" transform="rotate(-56.6615 86.562 116.313)" fill="white" fill-opacity="0.22"/>
<circle cx="323.285" cy="106.393" r="1" transform="rotate(-56.6615 323.285 106.393)" fill="white"/>
<circle cx="65.562" cy="85.3127" r="1" transform="rotate(-56.6615 65.562 85.3127)" fill="white"/>
<circle cx="323.462" cy="135.237" r="1" transform="rotate(-56.6615 323.462 135.237)" fill="white" fill-opacity="0.22"/>
<circle cx="145.485" cy="109.832" r="1" transform="rotate(-56.6615 145.485 109.832)" fill="white"/>
<circle cx="334" cy="53.3719" r="1" fill="white"/>
<circle cx="289.29" cy="50.233" r="1" transform="rotate(-56.6615 289.29 50.233)" fill="white"/>
<circle cx="345.385" cy="35.7569" r="1" transform="rotate(-56.6615 345.385 35.7569)" fill="white"/>
<circle cx="321.367" cy="79.7132" r="1" transform="rotate(-56.6615 321.367 79.7132)" fill="white"/>
<circle cx="317" cy="26.3719" r="1" fill="white"/>
<circle cx="162.864" cy="48.8883" r="1" transform="rotate(-44.8979 162.864 48.8883)" fill="white" fill-opacity="0.22"/>
<circle cx="168.571" cy="20.6142" r="1" transform="rotate(-44.8979 168.571 20.6142)" fill="white"/>
<circle cx="73.9491" cy="76.7273" r="1" transform="rotate(-118.421 73.9491 76.7273)" fill="white"/>
<circle cx="317" cy="26.3719" r="1" fill="white"/>
<circle cx="310" cy="69.3719" r="1" fill="white" fill-opacity="0.22"/>
<circle cx="277.462" cy="77.2371" r="1" transform="rotate(-56.6615 277.462 77.2371)" fill="white" fill-opacity="0.22"/>
<defs>
<linearGradient id="paint0_linear_14_14" x1="189.5" y1="0" x2="189.5" y2="175" gradientUnits="userSpaceOnUse">
<stop offset="0.205" stop-color="#2E173C"/>
<stop offset="0.745" stop-color="#531C75"/>
</linearGradient>
</defs>
</svg>
