<svg width="379" height="175" viewBox="0 0 379 175" fill="none" xmlns="http://www.w3.org/2000/svg">
<rect width="379" height="175" rx="87" fill="url(#paint0_linear_6_134)"/>
<circle cx="297" cy="25" r="1" fill="white"/>
<circle cx="290" cy="68" r="1" fill="white" fill-opacity="0.22"/>
<circle cx="314" cy="52" r="1" fill="white"/>
<circle cx="297" cy="25" r="1" fill="white"/>
<circle cx="301.367" cy="78.3413" r="1" transform="rotate(-56.6615 301.367 78.3413)" fill="white"/>
<circle cx="325.385" cy="34.385" r="1" transform="rotate(-56.6615 325.385 34.385)" fill="white"/>
<circle cx="269.29" cy="48.8611" r="1" transform="rotate(-56.6615 269.29 48.8611)" fill="white"/>
<circle cx="303.462" cy="133.865" r="1" transform="rotate(-56.6615 303.462 133.865)" fill="white" fill-opacity="0.22"/>
<circle cx="303.285" cy="105.021" r="1" transform="rotate(-56.6615 303.285 105.021)" fill="white"/>
<circle cx="271.385" cy="104.385" r="1" transform="rotate(-56.6615 271.385 104.385)" fill="white"/>
<circle cx="233.462" cy="104.865" r="1" transform="rotate(-56.6615 233.462 104.865)" fill="white"/>
<circle cx="233.285" cy="76.0213" r="1" transform="rotate(-56.6615 233.285 76.0213)" fill="white"/>
<circle cx="201.385" cy="75.385" r="1" transform="rotate(-56.6615 201.385 75.385)" fill="white" fill-opacity="0.22"/>
<circle cx="348.462" cy="98.8652" r="1" transform="rotate(-56.6615 348.462 98.8652)" fill="white"/>
<circle cx="348.285" cy="70.0213" r="1" transform="rotate(-56.6615 348.285 70.0213)" fill="white" fill-opacity="0.22"/>
<circle cx="316.385" cy="69.385" r="1" transform="rotate(-56.6615 316.385 69.385)" fill="white" fill-opacity="0.22"/>
<circle cx="236.462" cy="44.8652" r="1" transform="rotate(-56.6615 236.462 44.8652)" fill="white" fill-opacity="0.22"/>
<circle cx="236.285" cy="16.0214" r="1" transform="rotate(-56.6615 236.285 16.0214)" fill="white"/>
<circle cx="204.385" cy="15.385" r="1" transform="rotate(-56.6615 204.385 15.385)" fill="white"/>
<circle cx="257.462" cy="75.8652" r="1" transform="rotate(-56.6615 257.462 75.8652)" fill="white" fill-opacity="0.22"/>
<circle cx="257.285" cy="47.0213" r="1" transform="rotate(-56.6615 257.285 47.0213)" fill="white"/>
<circle cx="225.385" cy="46.385" r="1" transform="rotate(-56.6615 225.385 46.385)" fill="white"/>
<circle cx="285.998" cy="21.9704" r="1" transform="rotate(-118.421 285.998 21.9704)" fill="white" fill-opacity="0.22"/>
<circle cx="260.504" cy="8.4782" r="1" transform="rotate(-118.421 260.504 8.4782)" fill="white"/>
<circle cx="244.849" cy="36.2798" r="1" transform="rotate(-118.421 244.849 36.2798)" fill="white"/>
<circle cx="99.1002" cy="107.076" r="1" fill="white"/>
<circle cx="123.1" cy="91.0756" r="1" fill="white" fill-opacity="0.22"/>
<circle cx="110.467" cy="117.417" r="1" transform="rotate(-56.6615 110.467 117.417)" fill="white"/>
<circle cx="78.3904" cy="87.9368" r="1" transform="rotate(-56.6615 78.3904 87.9368)" fill="white" fill-opacity="0.22"/>
<circle cx="42.385" cy="115.097" r="1" transform="rotate(-56.6615 42.385 115.097)" fill="white"/>
<circle cx="157.385" cy="109.097" r="1" transform="rotate(-56.6615 157.385 109.097)" fill="white"/>
<circle cx="125.485" cy="108.461" r="1" transform="rotate(-56.6615 125.485 108.461)" fill="white"/>
<circle cx="45.562" cy="83.9408" r="1" transform="rotate(-56.6615 45.562 83.9408)" fill="white"/>
<circle cx="66.562" cy="114.941" r="1" transform="rotate(-56.6615 66.562 114.941)" fill="white" fill-opacity="0.22"/>
<circle cx="66.385" cy="86.097" r="1" transform="rotate(-56.6615 66.385 86.097)" fill="white"/>
<circle cx="53.9491" cy="75.3554" r="1" transform="rotate(-118.421 53.9491 75.3554)" fill="white"/>
<circle cx="228.1" cy="78.0756" r="1" fill="white"/>
<circle cx="252.1" cy="62.0756" r="1" fill="white"/>
<circle cx="239.467" cy="88.4169" r="1" transform="rotate(-56.6615 239.467 88.4169)" fill="white"/>
<circle cx="207.39" cy="58.9367" r="1" transform="rotate(-56.6615 207.39 58.9367)" fill="white"/>
<circle cx="171.385" cy="86.097" r="1" transform="rotate(-56.6615 171.385 86.097)" fill="white"/>
<circle cx="286.385" cy="80.097" r="1" transform="rotate(-56.6615 286.385 80.097)" fill="white"/>
<circle cx="254.485" cy="79.4606" r="1" transform="rotate(-56.6615 254.485 79.4606)" fill="white"/>
<circle cx="174.562" cy="54.9408" r="1" transform="rotate(-56.6615 174.562 54.9408)" fill="white"/>
<circle cx="195.562" cy="85.9408" r="1" transform="rotate(-56.6615 195.562 85.9408)" fill="white"/>
<circle cx="195.385" cy="57.097" r="1" transform="rotate(-56.6615 195.385 57.097)" fill="white" fill-opacity="0.22"/>
<circle cx="182.949" cy="46.3554" r="1" transform="rotate(-118.421 182.949 46.3554)" fill="white"/>
<circle cx="142.864" cy="47.5165" r="1" transform="rotate(-44.8979 142.864 47.5165)" fill="white" fill-opacity="0.22"/>
<circle cx="148.571" cy="19.2423" r="1" transform="rotate(-44.8979 148.571 19.2423)" fill="white"/>
<circle cx="158.215" cy="46.8186" r="1" transform="rotate(-101.559 158.215 46.8186)" fill="white"/>
<circle cx="114.685" cy="48.5771" r="1" transform="rotate(-101.559 114.685 48.5771)" fill="white"/>
<circle cx="108.35" cy="93.2307" r="1" transform="rotate(-101.559 108.35 93.2307)" fill="white"/>
<circle cx="185.577" cy="7.80824" r="1" transform="rotate(-101.559 185.577 7.80824)" fill="white" fill-opacity="0.22"/>
<circle cx="162.532" cy="29.8738" r="1" transform="rotate(-101.559 162.532 29.8738)" fill="white"/>
<circle cx="88.6095" cy="68.9183" r="1" transform="rotate(-101.559 88.6095 68.9183)" fill="white"/>
<circle cx="125.366" cy="76.0549" r="1" transform="rotate(-101.559 125.366 76.0549)" fill="white"/>
<circle cx="104.882" cy="55.7478" r="1" transform="rotate(-101.559 104.882 55.7478)" fill="white"/>
<circle cx="88.4907" cy="56.9167" r="1" transform="rotate(-163.319 88.4907 56.9167)" fill="white" fill-opacity="0.22"/>
<circle cx="84.1002" cy="63.4039" r="1" fill="white"/>
<circle cx="63.3904" cy="44.265" r="1" transform="rotate(-56.6615 63.3904 44.265)" fill="white"/>
<circle cx="27.385" cy="71.4252" r="1" transform="rotate(-56.6615 27.385 71.4252)" fill="white"/>
<circle cx="30.562" cy="40.2691" r="1" transform="rotate(-56.6615 30.562 40.2691)" fill="white"/>
<circle cx="51.562" cy="71.2691" r="1" transform="rotate(-56.6615 51.562 71.2691)" fill="white" fill-opacity="0.22"/>
<circle cx="51.385" cy="42.4252" r="1" transform="rotate(-56.6615 51.385 42.4252)" fill="white" fill-opacity="0.22"/>
<circle cx="38.9491" cy="31.6837" r="1" transform="rotate(-118.421 38.9491 31.6837)" fill="white"/>
<circle cx="128.213" cy="30.9368" r="1" transform="rotate(-56.6615 128.213 30.9368)" fill="white"/>
<circle cx="95.385" cy="26.9408" r="1" transform="rotate(-56.6615 95.385 26.9408)" fill="white"/>
<circle cx="116.208" cy="29.097" r="1" transform="rotate(-56.6615 116.208 29.097)" fill="white"/>
<circle cx="103.772" cy="18.3554" r="1" transform="rotate(-118.421 103.772 18.3554)" fill="white" fill-opacity="0.22"/>
<circle cx="73.6095" cy="25.2466" r="1" transform="rotate(-101.559 73.6095 25.2466)" fill="white"/>
<circle cx="73.4907" cy="13.245" r="1" transform="rotate(-163.319 73.4907 13.245)" fill="white"/>
<defs>
<linearGradient id="paint0_linear_6_134" x1="189.5" y1="0" x2="189.5" y2="175" gradientUnits="userSpaceOnUse">
<stop offset="0.235" stop-color="#18203D"/>
<stop offset="0.985" stop-color="#2E4184"/>
</linearGradient>
</defs>
</svg>
